<svg width="500" height="300" viewBox="0 0 500 300" fill="none" xmlns="http://www.w3.org/2000/svg">
<rect width="500" height="300" fill="#333333"/>
<path d="M152.618 175.592V177H139.99V175.878L150.198 163.008H140.144V161.6H152.354V162.722L142.168 175.592H152.618ZM165.262 171.698H155.582C155.67 172.901 156.132 173.876 156.968 174.624C157.804 175.357 158.86 175.724 160.136 175.724C160.854 175.724 161.514 175.599 162.116 175.35C162.717 175.086 163.238 174.705 163.678 174.206L164.558 175.218C164.044 175.834 163.399 176.303 162.622 176.626C161.859 176.949 161.016 177.11 160.092 177.11C158.904 177.11 157.848 176.861 156.924 176.362C156.014 175.849 155.303 175.145 154.79 174.25C154.276 173.355 154.02 172.343 154.02 171.214C154.02 170.085 154.262 169.073 154.746 168.178C155.244 167.283 155.919 166.587 156.77 166.088C157.635 165.589 158.603 165.34 159.674 165.34C160.744 165.34 161.705 165.589 162.556 166.088C163.406 166.587 164.074 167.283 164.558 168.178C165.042 169.058 165.284 170.07 165.284 171.214L165.262 171.698ZM159.674 166.682C158.559 166.682 157.62 167.041 156.858 167.76C156.11 168.464 155.684 169.388 155.582 170.532H163.788C163.685 169.388 163.252 168.464 162.49 167.76C161.742 167.041 160.803 166.682 159.674 166.682ZM179.177 165.428V175.592C179.177 177.557 178.693 179.009 177.725 179.948C176.772 180.901 175.327 181.378 173.391 181.378C172.32 181.378 171.301 181.217 170.333 180.894C169.38 180.586 168.602 180.153 168.001 179.596L168.793 178.408C169.35 178.907 170.025 179.295 170.817 179.574C171.624 179.853 172.467 179.992 173.347 179.992C174.814 179.992 175.892 179.647 176.581 178.958C177.27 178.283 177.615 177.227 177.615 175.79V174.316C177.131 175.049 176.493 175.607 175.701 175.988C174.924 176.369 174.058 176.56 173.105 176.56C172.02 176.56 171.03 176.325 170.135 175.856C169.255 175.372 168.558 174.705 168.045 173.854C167.546 172.989 167.297 172.013 167.297 170.928C167.297 169.843 167.546 168.875 168.045 168.024C168.558 167.173 169.255 166.513 170.135 166.044C171.015 165.575 172.005 165.34 173.105 165.34C174.088 165.34 174.975 165.538 175.767 165.934C176.559 166.33 177.197 166.902 177.681 167.65V165.428H179.177ZM173.259 175.174C174.095 175.174 174.85 174.998 175.525 174.646C176.2 174.279 176.72 173.773 177.087 173.128C177.468 172.483 177.659 171.749 177.659 170.928C177.659 170.107 177.468 169.381 177.087 168.75C176.72 168.105 176.2 167.606 175.525 167.254C174.865 166.887 174.11 166.704 173.259 166.704C172.423 166.704 171.668 166.88 170.993 167.232C170.333 167.584 169.812 168.083 169.431 168.728C169.064 169.373 168.881 170.107 168.881 170.928C168.881 171.749 169.064 172.483 169.431 173.128C169.812 173.773 170.333 174.279 170.993 174.646C171.668 174.998 172.423 175.174 173.259 175.174ZM187.593 165.34C189.104 165.34 190.263 165.721 191.069 166.484C191.876 167.232 192.279 168.347 192.279 169.828V177H190.783V175.196C190.431 175.797 189.911 176.267 189.221 176.604C188.547 176.941 187.74 177.11 186.801 177.11C185.511 177.11 184.484 176.802 183.721 176.186C182.959 175.57 182.577 174.756 182.577 173.744C182.577 172.761 182.929 171.969 183.633 171.368C184.352 170.767 185.489 170.466 187.043 170.466H190.717V169.762C190.717 168.765 190.439 168.009 189.881 167.496C189.324 166.968 188.51 166.704 187.439 166.704C186.706 166.704 186.002 166.829 185.327 167.078C184.653 167.313 184.073 167.643 183.589 168.068L182.885 166.902C183.472 166.403 184.176 166.022 184.997 165.758C185.819 165.479 186.684 165.34 187.593 165.34ZM187.043 175.878C187.923 175.878 188.679 175.68 189.309 175.284C189.94 174.873 190.409 174.287 190.717 173.524V171.632H187.087C185.107 171.632 184.117 172.321 184.117 173.7C184.117 174.375 184.374 174.91 184.887 175.306C185.401 175.687 186.119 175.878 187.043 175.878ZM198.018 167.694C198.384 166.917 198.927 166.33 199.646 165.934C200.379 165.538 201.281 165.34 202.352 165.34V166.858L201.978 166.836C200.76 166.836 199.807 167.21 199.118 167.958C198.428 168.706 198.084 169.755 198.084 171.104V177H196.522V165.428H198.018V167.694ZM205.313 174.712C205.65 174.712 205.929 174.829 206.149 175.064C206.369 175.284 206.479 175.563 206.479 175.9C206.479 176.076 206.45 176.267 206.391 176.472C206.347 176.677 206.274 176.912 206.171 177.176L205.247 180.212H204.191L204.939 177.022C204.704 176.949 204.514 176.817 204.367 176.626C204.22 176.421 204.147 176.179 204.147 175.9C204.147 175.563 204.257 175.284 204.477 175.064C204.697 174.829 204.976 174.712 205.313 174.712ZM226.117 160.676V177H224.621V174.712C224.152 175.489 223.528 176.083 222.751 176.494C221.988 176.905 221.123 177.11 220.155 177.11C219.07 177.11 218.087 176.861 217.207 176.362C216.327 175.863 215.638 175.167 215.139 174.272C214.64 173.377 214.391 172.358 214.391 171.214C214.391 170.07 214.64 169.051 215.139 168.156C215.638 167.261 216.327 166.572 217.207 166.088C218.087 165.589 219.07 165.34 220.155 165.34C221.094 165.34 221.937 165.538 222.685 165.934C223.448 166.315 224.071 166.88 224.555 167.628V160.676H226.117ZM220.287 175.724C221.094 175.724 221.82 175.541 222.465 175.174C223.125 174.793 223.638 174.257 224.005 173.568C224.386 172.879 224.577 172.094 224.577 171.214C224.577 170.334 224.386 169.549 224.005 168.86C223.638 168.171 223.125 167.643 222.465 167.276C221.82 166.895 221.094 166.704 220.287 166.704C219.466 166.704 218.725 166.895 218.065 167.276C217.42 167.643 216.906 168.171 216.525 168.86C216.158 169.549 215.975 170.334 215.975 171.214C215.975 172.094 216.158 172.879 216.525 173.568C216.906 174.257 217.42 174.793 218.065 175.174C218.725 175.541 219.466 175.724 220.287 175.724ZM234.515 165.34C236.026 165.34 237.184 165.721 237.991 166.484C238.798 167.232 239.201 168.347 239.201 169.828V177H237.705V175.196C237.353 175.797 236.832 176.267 236.143 176.604C235.468 176.941 234.662 177.11 233.723 177.11C232.432 177.11 231.406 176.802 230.643 176.186C229.88 175.57 229.499 174.756 229.499 173.744C229.499 172.761 229.851 171.969 230.555 171.368C231.274 170.767 232.41 170.466 233.965 170.466H237.639V169.762C237.639 168.765 237.36 168.009 236.803 167.496C236.246 166.968 235.432 166.704 234.361 166.704C233.628 166.704 232.924 166.829 232.249 167.078C231.574 167.313 230.995 167.643 230.511 168.068L229.807 166.902C230.394 166.403 231.098 166.022 231.919 165.758C232.74 165.479 233.606 165.34 234.515 165.34ZM233.965 175.878C234.845 175.878 235.6 175.68 236.231 175.284C236.862 174.873 237.331 174.287 237.639 173.524V171.632H234.009C232.029 171.632 231.039 172.321 231.039 173.7C231.039 174.375 231.296 174.91 231.809 175.306C232.322 175.687 233.041 175.878 233.965 175.878ZM249.538 176.296C249.244 176.56 248.878 176.765 248.438 176.912C248.012 177.044 247.565 177.11 247.096 177.11C246.01 177.11 245.174 176.817 244.588 176.23C244.001 175.643 243.708 174.815 243.708 173.744V166.748H241.64V165.428H243.708V162.898H245.27V165.428H248.79V166.748H245.27V173.656C245.27 174.345 245.438 174.873 245.776 175.24C246.128 175.592 246.626 175.768 247.272 175.768C247.594 175.768 247.902 175.717 248.196 175.614C248.504 175.511 248.768 175.365 248.988 175.174L249.538 176.296ZM256.429 165.34C257.94 165.34 259.098 165.721 259.905 166.484C260.712 167.232 261.115 168.347 261.115 169.828V177H259.619V175.196C259.267 175.797 258.746 176.267 258.057 176.604C257.382 176.941 256.576 177.11 255.637 177.11C254.346 177.11 253.32 176.802 252.557 176.186C251.794 175.57 251.413 174.756 251.413 173.744C251.413 172.761 251.765 171.969 252.469 171.368C253.188 170.767 254.324 170.466 255.879 170.466H259.553V169.762C259.553 168.765 259.274 168.009 258.717 167.496C258.16 166.968 257.346 166.704 256.275 166.704C255.542 166.704 254.838 166.829 254.163 167.078C253.488 167.313 252.909 167.643 252.425 168.068L251.721 166.902C252.308 166.403 253.012 166.022 253.833 165.758C254.654 165.479 255.52 165.34 256.429 165.34ZM255.879 175.878C256.759 175.878 257.514 175.68 258.145 175.284C258.776 174.873 259.245 174.287 259.553 173.524V171.632H255.923C253.943 171.632 252.953 172.321 252.953 173.7C252.953 174.375 253.21 174.91 253.723 175.306C254.236 175.687 254.955 175.878 255.879 175.878ZM265.534 174.712C265.871 174.712 266.15 174.829 266.37 175.064C266.59 175.284 266.7 175.563 266.7 175.9C266.7 176.076 266.67 176.267 266.612 176.472C266.568 176.677 266.494 176.912 266.392 177.176L265.468 180.212H264.412L265.16 177.022C264.925 176.949 264.734 176.817 264.588 176.626C264.441 176.421 264.368 176.179 264.368 175.9C264.368 175.563 264.478 175.284 264.698 175.064C264.918 174.829 265.196 174.712 265.534 174.712ZM281.74 165.34C282.825 165.34 283.808 165.589 284.688 166.088C285.568 166.572 286.257 167.261 286.756 168.156C287.254 169.051 287.504 170.07 287.504 171.214C287.504 172.373 287.254 173.399 286.756 174.294C286.257 175.189 285.568 175.885 284.688 176.384C283.822 176.868 282.84 177.11 281.74 177.11C280.801 177.11 279.95 176.919 279.188 176.538C278.44 176.142 277.824 175.57 277.34 174.822V181.268H275.778V165.428H277.274V167.716C277.743 166.953 278.359 166.367 279.122 165.956C279.899 165.545 280.772 165.34 281.74 165.34ZM281.63 175.724C282.436 175.724 283.17 175.541 283.83 175.174C284.49 174.793 285.003 174.257 285.37 173.568C285.751 172.879 285.942 172.094 285.942 171.214C285.942 170.334 285.751 169.557 285.37 168.882C285.003 168.193 284.49 167.657 283.83 167.276C283.17 166.895 282.436 166.704 281.63 166.704C280.808 166.704 280.068 166.895 279.408 167.276C278.762 167.657 278.249 168.193 277.868 168.882C277.501 169.557 277.318 170.334 277.318 171.214C277.318 172.094 277.501 172.879 277.868 173.568C278.249 174.257 278.762 174.793 279.408 175.174C280.068 175.541 280.808 175.724 281.63 175.724ZM295.418 177.11C294.303 177.11 293.298 176.861 292.404 176.362C291.509 175.849 290.805 175.145 290.292 174.25C289.778 173.355 289.522 172.343 289.522 171.214C289.522 170.085 289.778 169.073 290.292 168.178C290.805 167.283 291.509 166.587 292.404 166.088C293.298 165.589 294.303 165.34 295.418 165.34C296.532 165.34 297.537 165.589 298.432 166.088C299.326 166.587 300.023 167.283 300.522 168.178C301.035 169.073 301.292 170.085 301.292 171.214C301.292 172.343 301.035 173.355 300.522 174.25C300.023 175.145 299.326 175.849 298.432 176.362C297.537 176.861 296.532 177.11 295.418 177.11ZM295.418 175.724C296.239 175.724 296.972 175.541 297.618 175.174C298.278 174.793 298.791 174.257 299.158 173.568C299.524 172.879 299.708 172.094 299.708 171.214C299.708 170.334 299.524 169.549 299.158 168.86C298.791 168.171 298.278 167.643 297.618 167.276C296.972 166.895 296.239 166.704 295.418 166.704C294.596 166.704 293.856 166.895 293.196 167.276C292.55 167.643 292.037 168.171 291.656 168.86C291.289 169.549 291.106 170.334 291.106 171.214C291.106 172.094 291.289 172.879 291.656 173.568C292.037 174.257 292.55 174.793 293.196 175.174C293.856 175.541 294.596 175.724 295.418 175.724ZM315.195 165.428V175.592C315.195 177.557 314.711 179.009 313.743 179.948C312.789 180.901 311.345 181.378 309.409 181.378C308.338 181.378 307.319 181.217 306.351 180.894C305.397 180.586 304.62 180.153 304.019 179.596L304.811 178.408C305.368 178.907 306.043 179.295 306.835 179.574C307.641 179.853 308.485 179.992 309.365 179.992C310.831 179.992 311.909 179.647 312.599 178.958C313.288 178.283 313.633 177.227 313.633 175.79V174.316C313.149 175.049 312.511 175.607 311.719 175.988C310.941 176.369 310.076 176.56 309.123 176.56C308.037 176.56 307.047 176.325 306.153 175.856C305.273 175.372 304.576 174.705 304.063 173.854C303.564 172.989 303.315 172.013 303.315 170.928C303.315 169.843 303.564 168.875 304.063 168.024C304.576 167.173 305.273 166.513 306.153 166.044C307.033 165.575 308.023 165.34 309.123 165.34C310.105 165.34 310.993 165.538 311.785 165.934C312.577 166.33 313.215 166.902 313.699 167.65V165.428H315.195ZM309.277 175.174C310.113 175.174 310.868 174.998 311.543 174.646C312.217 174.279 312.738 173.773 313.105 173.128C313.486 172.483 313.677 171.749 313.677 170.928C313.677 170.107 313.486 169.381 313.105 168.75C312.738 168.105 312.217 167.606 311.543 167.254C310.883 166.887 310.127 166.704 309.277 166.704C308.441 166.704 307.685 166.88 307.011 167.232C306.351 167.584 305.83 168.083 305.449 168.728C305.082 169.373 304.899 170.107 304.899 170.928C304.899 171.749 305.082 172.483 305.449 173.128C305.83 173.773 306.351 174.279 307.011 174.646C307.685 174.998 308.441 175.174 309.277 175.174ZM324.293 177.11C323.178 177.11 322.173 176.861 321.279 176.362C320.384 175.849 319.68 175.145 319.167 174.25C318.653 173.355 318.397 172.343 318.397 171.214C318.397 170.085 318.653 169.073 319.167 168.178C319.68 167.283 320.384 166.587 321.279 166.088C322.173 165.589 323.178 165.34 324.293 165.34C325.407 165.34 326.412 165.589 327.307 166.088C328.201 166.587 328.898 167.283 329.397 168.178C329.91 169.073 330.167 170.085 330.167 171.214C330.167 172.343 329.91 173.355 329.397 174.25C328.898 175.145 328.201 175.849 327.307 176.362C326.412 176.861 325.407 177.11 324.293 177.11ZM324.293 175.724C325.114 175.724 325.847 175.541 326.493 175.174C327.153 174.793 327.666 174.257 328.033 173.568C328.399 172.879 328.583 172.094 328.583 171.214C328.583 170.334 328.399 169.549 328.033 168.86C327.666 168.171 327.153 167.643 326.493 167.276C325.847 166.895 325.114 166.704 324.293 166.704C323.471 166.704 322.731 166.895 322.071 167.276C321.425 167.643 320.912 168.171 320.531 168.86C320.164 169.549 319.981 170.334 319.981 171.214C319.981 172.094 320.164 172.879 320.531 173.568C320.912 174.257 321.425 174.793 322.071 175.174C322.731 175.541 323.471 175.724 324.293 175.724ZM343.916 160.676V177H342.42V174.712C341.95 175.489 341.327 176.083 340.55 176.494C339.787 176.905 338.922 177.11 337.954 177.11C336.868 177.11 335.886 176.861 335.006 176.362C334.126 175.863 333.436 175.167 332.938 174.272C332.439 173.377 332.19 172.358 332.19 171.214C332.19 170.07 332.439 169.051 332.938 168.156C333.436 167.261 334.126 166.572 335.006 166.088C335.886 165.589 336.868 165.34 337.954 165.34C338.892 165.34 339.736 165.538 340.484 165.934C341.246 166.315 341.87 166.88 342.354 167.628V160.676H343.916ZM338.086 175.724C338.892 175.724 339.618 175.541 340.264 175.174C340.924 174.793 341.437 174.257 341.804 173.568C342.185 172.879 342.376 172.094 342.376 171.214C342.376 170.334 342.185 169.549 341.804 168.86C341.437 168.171 340.924 167.643 340.264 167.276C339.618 166.895 338.892 166.704 338.086 166.704C337.264 166.704 336.524 166.895 335.864 167.276C335.218 167.643 334.705 168.171 334.324 168.86C333.957 169.549 333.774 170.334 333.774 171.214C333.774 172.094 333.957 172.879 334.324 173.568C334.705 174.257 335.218 174.793 335.864 175.174C336.524 175.541 337.264 175.724 338.086 175.724ZM352.314 165.34C353.825 165.34 354.983 165.721 355.79 166.484C356.597 167.232 357 168.347 357 169.828V177H355.504V175.196C355.152 175.797 354.631 176.267 353.942 176.604C353.267 176.941 352.461 177.11 351.522 177.11C350.231 177.11 349.205 176.802 348.442 176.186C347.679 175.57 347.298 174.756 347.298 173.744C347.298 172.761 347.65 171.969 348.354 171.368C349.073 170.767 350.209 170.466 351.764 170.466H355.438V169.762C355.438 168.765 355.159 168.009 354.602 167.496C354.045 166.968 353.231 166.704 352.16 166.704C351.427 166.704 350.723 166.829 350.048 167.078C349.373 167.313 348.794 167.643 348.31 168.068L347.606 166.902C348.193 166.403 348.897 166.022 349.718 165.758C350.539 165.479 351.405 165.34 352.314 165.34ZM351.764 175.878C352.644 175.878 353.399 175.68 354.03 175.284C354.661 174.873 355.13 174.287 355.438 173.524V171.632H351.808C349.828 171.632 348.838 172.321 348.838 173.7C348.838 174.375 349.095 174.91 349.608 175.306C350.121 175.687 350.84 175.878 351.764 175.878Z" fill="white"/>
<path d="M117.642 97.408C115.761 97.408 113.936 97.1587 112.168 96.66C110.423 96.1387 109.017 95.47 107.952 94.654L109.822 90.506C110.842 91.254 112.055 91.8547 113.46 92.308C114.865 92.7613 116.271 92.988 117.676 92.988C119.24 92.988 120.396 92.7613 121.144 92.308C121.892 91.832 122.266 91.2087 122.266 90.438C122.266 89.8713 122.039 89.4067 121.586 89.044C121.155 88.6587 120.589 88.3527 119.886 88.126C119.206 87.8993 118.277 87.65 117.098 87.378C115.285 86.9473 113.8 86.5167 112.644 86.086C111.488 85.6553 110.491 84.964 109.652 84.012C108.836 83.06 108.428 81.7907 108.428 80.204C108.428 78.8213 108.802 77.5747 109.55 76.464C110.298 75.3307 111.42 74.4353 112.916 73.778C114.435 73.1207 116.282 72.792 118.458 72.792C119.977 72.792 121.461 72.9733 122.912 73.336C124.363 73.6987 125.632 74.22 126.72 74.9L125.02 79.082C122.821 77.8353 120.623 77.212 118.424 77.212C116.883 77.212 115.738 77.4613 114.99 77.96C114.265 78.4587 113.902 79.116 113.902 79.932C113.902 80.748 114.321 81.36 115.16 81.768C116.021 82.1533 117.325 82.5387 119.07 82.924C120.883 83.3547 122.368 83.7853 123.524 84.216C124.68 84.6467 125.666 85.3267 126.482 86.256C127.321 87.1853 127.74 88.4433 127.74 90.03C127.74 91.39 127.355 92.6367 126.584 93.77C125.836 94.8807 124.703 95.7647 123.184 96.422C121.665 97.0793 119.818 97.408 117.642 97.408ZM142.928 96.116C142.406 96.5013 141.76 96.796 140.99 97C140.242 97.1813 139.448 97.272 138.61 97.272C136.434 97.272 134.745 96.7167 133.544 95.606C132.365 94.4953 131.776 92.8633 131.776 90.71V83.196H128.954V79.116H131.776V74.662H137.08V79.116H141.636V83.196H137.08V90.642C137.08 91.4127 137.272 92.0133 137.658 92.444C138.066 92.852 138.632 93.056 139.358 93.056C140.196 93.056 140.91 92.8293 141.5 92.376L142.928 96.116ZM150.971 81.122C151.606 80.238 152.456 79.5693 153.521 79.116C154.609 78.6627 155.856 78.436 157.261 78.436V83.332C156.672 83.2867 156.275 83.264 156.071 83.264C154.552 83.264 153.362 83.6947 152.501 84.556C151.64 85.3947 151.209 86.664 151.209 88.364V97H145.905V78.708H150.971V81.122ZM168.953 97.272C167.026 97.272 165.292 96.8753 163.751 96.082C162.232 95.266 161.042 94.144 160.181 92.716C159.319 91.288 158.889 89.6673 158.889 87.854C158.889 86.0407 159.319 84.42 160.181 82.992C161.042 81.564 162.232 80.4533 163.751 79.66C165.292 78.844 167.026 78.436 168.953 78.436C170.879 78.436 172.602 78.844 174.121 79.66C175.639 80.4533 176.829 81.564 177.691 82.992C178.552 84.42 178.983 86.0407 178.983 87.854C178.983 89.6673 178.552 91.288 177.691 92.716C176.829 94.144 175.639 95.266 174.121 96.082C172.602 96.8753 170.879 97.272 168.953 97.272ZM168.953 92.92C170.313 92.92 171.423 92.4667 172.285 91.56C173.169 90.6307 173.611 89.3953 173.611 87.854C173.611 86.3127 173.169 85.0887 172.285 84.182C171.423 83.2527 170.313 82.788 168.953 82.788C167.593 82.788 166.471 83.2527 165.587 84.182C164.703 85.0887 164.261 86.3127 164.261 87.854C164.261 89.3953 164.703 90.6307 165.587 91.56C166.471 92.4667 167.593 92.92 168.953 92.92ZM193.646 78.436C195.913 78.436 197.737 79.116 199.12 80.476C200.525 81.836 201.228 83.8533 201.228 86.528V97H195.924V87.344C195.924 85.8933 195.607 84.8167 194.972 84.114C194.337 83.3887 193.419 83.026 192.218 83.026C190.881 83.026 189.815 83.4453 189.022 84.284C188.229 85.1 187.832 86.324 187.832 87.956V97H182.528V78.708H187.594V80.85C188.297 80.0793 189.169 79.49 190.212 79.082C191.255 78.6513 192.399 78.436 193.646 78.436ZM213.414 78.436C216.247 78.436 218.423 79.116 219.942 80.476C221.461 81.8133 222.22 83.842 222.22 86.562V97H217.256V94.722C216.259 96.422 214.4 97.272 211.68 97.272C210.275 97.272 209.051 97.034 208.008 96.558C206.988 96.082 206.206 95.4247 205.662 94.586C205.118 93.7473 204.846 92.7953 204.846 91.73C204.846 90.03 205.481 88.6927 206.75 87.718C208.042 86.7433 210.025 86.256 212.7 86.256H216.916C216.916 85.1 216.565 84.216 215.862 83.604C215.159 82.9693 214.105 82.652 212.7 82.652C211.725 82.652 210.762 82.8107 209.81 83.128C208.881 83.4227 208.087 83.8307 207.43 84.352L205.526 80.646C206.523 79.9433 207.713 79.3993 209.096 79.014C210.501 78.6287 211.941 78.436 213.414 78.436ZM213.006 93.702C213.913 93.702 214.717 93.498 215.42 93.09C216.123 92.6593 216.621 92.036 216.916 91.22V89.35H213.278C211.102 89.35 210.014 90.064 210.014 91.492C210.014 92.172 210.275 92.716 210.796 93.124C211.34 93.5093 212.077 93.702 213.006 93.702ZM242.803 97.272C241.285 97.272 239.8 97.0907 238.349 96.728C236.899 96.3427 235.743 95.8667 234.881 95.3L236.649 91.492C237.465 92.0133 238.451 92.444 239.607 92.784C240.763 93.1013 241.897 93.26 243.007 93.26C245.251 93.26 246.373 92.7047 246.373 91.594C246.373 91.0727 246.067 90.6987 245.455 90.472C244.843 90.2453 243.903 90.0527 242.633 89.894C241.137 89.6673 239.902 89.4067 238.927 89.112C237.953 88.8173 237.103 88.296 236.377 87.548C235.675 86.8 235.323 85.7347 235.323 84.352C235.323 83.196 235.652 82.176 236.309 81.292C236.989 80.3853 237.964 79.6827 239.233 79.184C240.525 78.6853 242.044 78.436 243.789 78.436C245.081 78.436 246.362 78.5833 247.631 78.878C248.923 79.15 249.989 79.5353 250.827 80.034L249.059 83.808C247.45 82.9013 245.693 82.448 243.789 82.448C242.656 82.448 241.806 82.6067 241.239 82.924C240.673 83.2413 240.389 83.6493 240.389 84.148C240.389 84.7147 240.695 85.1113 241.307 85.338C241.919 85.5647 242.894 85.78 244.231 85.984C245.727 86.2333 246.951 86.5053 247.903 86.8C248.855 87.072 249.683 87.582 250.385 88.33C251.088 89.078 251.439 90.1207 251.439 91.458C251.439 92.5913 251.099 93.6 250.419 94.484C249.739 95.368 248.742 96.0593 247.427 96.558C246.135 97.034 244.594 97.272 242.803 97.272ZM266.51 96.116C265.988 96.5013 265.342 96.796 264.572 97C263.824 97.1813 263.03 97.272 262.192 97.272C260.016 97.272 258.327 96.7167 257.126 95.606C255.947 94.4953 255.358 92.8633 255.358 90.71V83.196H252.536V79.116H255.358V74.662H260.662V79.116H265.218V83.196H260.662V90.642C260.662 91.4127 260.854 92.0133 261.24 92.444C261.648 92.852 262.214 93.056 262.94 93.056C263.778 93.056 264.492 92.8293 265.082 92.376L266.51 96.116ZM276.865 78.436C279.698 78.436 281.874 79.116 283.393 80.476C284.912 81.8133 285.671 83.842 285.671 86.562V97H280.707V94.722C279.71 96.422 277.851 97.272 275.131 97.272C273.726 97.272 272.502 97.034 271.459 96.558C270.439 96.082 269.657 95.4247 269.113 94.586C268.569 93.7473 268.297 92.7953 268.297 91.73C268.297 90.03 268.932 88.6927 270.201 87.718C271.493 86.7433 273.476 86.256 276.151 86.256H280.367C280.367 85.1 280.016 84.216 279.313 83.604C278.61 82.9693 277.556 82.652 276.151 82.652C275.176 82.652 274.213 82.8107 273.261 83.128C272.332 83.4227 271.538 83.8307 270.881 84.352L268.977 80.646C269.974 79.9433 271.164 79.3993 272.547 79.014C273.952 78.6287 275.392 78.436 276.865 78.436ZM276.457 93.702C277.364 93.702 278.168 93.498 278.871 93.09C279.574 92.6593 280.072 92.036 280.367 91.22V89.35H276.729C274.553 89.35 273.465 90.064 273.465 91.492C273.465 92.172 273.726 92.716 274.247 93.124C274.791 93.5093 275.528 93.702 276.457 93.702ZM295.537 81.122C296.172 80.238 297.022 79.5693 298.087 79.116C299.175 78.6627 300.422 78.436 301.827 78.436V83.332C301.238 83.2867 300.841 83.264 300.637 83.264C299.119 83.264 297.929 83.6947 297.067 84.556C296.206 85.3947 295.775 86.664 295.775 88.364V97H290.471V78.708H295.537V81.122ZM317.41 96.116C316.889 96.5013 316.243 96.796 315.472 97C314.724 97.1813 313.931 97.272 313.092 97.272C310.916 97.272 309.227 96.7167 308.026 95.606C306.847 94.4953 306.258 92.8633 306.258 90.71V83.196H303.436V79.116H306.258V74.662H311.562V79.116H316.118V83.196H311.562V90.642C311.562 91.4127 311.755 92.0133 312.14 92.444C312.548 92.852 313.115 93.056 313.84 93.056C314.679 93.056 315.393 92.8293 315.982 92.376L317.41 96.116ZM328.527 97.272C326.6 97.272 324.866 96.8753 323.325 96.082C321.806 95.266 320.616 94.144 319.755 92.716C318.894 91.288 318.463 89.6673 318.463 87.854C318.463 86.0407 318.894 84.42 319.755 82.992C320.616 81.564 321.806 80.4533 323.325 79.66C324.866 78.844 326.6 78.436 328.527 78.436C330.454 78.436 332.176 78.844 333.695 79.66C335.214 80.4533 336.404 81.564 337.265 82.992C338.126 84.42 338.557 86.0407 338.557 87.854C338.557 89.6673 338.126 91.288 337.265 92.716C336.404 94.144 335.214 95.266 333.695 96.082C332.176 96.8753 330.454 97.272 328.527 97.272ZM328.527 92.92C329.887 92.92 330.998 92.4667 331.859 91.56C332.743 90.6307 333.185 89.3953 333.185 87.854C333.185 86.3127 332.743 85.0887 331.859 84.182C330.998 83.2527 329.887 82.788 328.527 82.788C327.167 82.788 326.045 83.2527 325.161 84.182C324.277 85.0887 323.835 86.3127 323.835 87.854C323.835 89.3953 324.277 90.6307 325.161 91.56C326.045 92.4667 327.167 92.92 328.527 92.92ZM370.98 78.708L364.35 97H359.25L355.136 85.644L350.886 97H345.786L339.19 78.708H344.188L348.506 91.084L352.994 78.708H357.482L361.834 91.084L366.288 78.708H370.98ZM380.226 78.436C383.06 78.436 385.236 79.116 386.754 80.476C388.273 81.8133 389.032 83.842 389.032 86.562V97H384.068V94.722C383.071 96.422 381.212 97.272 378.492 97.272C377.087 97.272 375.863 97.034 374.82 96.558C373.8 96.082 373.018 95.4247 372.474 94.586C371.93 93.7473 371.658 92.7953 371.658 91.73C371.658 90.03 372.293 88.6927 373.562 87.718C374.854 86.7433 376.838 86.256 379.512 86.256H383.728C383.728 85.1 383.377 84.216 382.674 83.604C381.972 82.9693 380.918 82.652 379.512 82.652C378.538 82.652 377.574 82.8107 376.622 83.128C375.693 83.4227 374.9 83.8307 374.242 84.352L372.338 80.646C373.336 79.9433 374.526 79.3993 375.908 79.014C377.314 78.6287 378.753 78.436 380.226 78.436ZM379.818 93.702C380.725 93.702 381.53 93.498 382.232 93.09C382.935 92.6593 383.434 92.036 383.728 91.22V89.35H380.09C377.914 89.35 376.826 90.064 376.826 91.492C376.826 92.172 377.087 92.716 377.608 93.124C378.152 93.5093 378.889 93.702 379.818 93.702Z" fill="white"/>
<path d="M169.65 124.6L164.458 140H162.742L158.232 126.866L153.7 140H152.006L146.814 124.6H148.486L152.93 137.844L157.528 124.6H159.046L163.578 137.91L168.088 124.6H169.65ZM182.007 128.428L176.221 141.386C175.752 142.471 175.209 143.241 174.593 143.696C173.977 144.151 173.237 144.378 172.371 144.378C171.814 144.378 171.293 144.29 170.809 144.114C170.325 143.938 169.907 143.674 169.555 143.322L170.281 142.156C170.868 142.743 171.572 143.036 172.393 143.036C172.921 143.036 173.369 142.889 173.735 142.596C174.117 142.303 174.469 141.804 174.791 141.1L175.297 139.978L170.127 128.428H171.755L176.111 138.262L180.467 128.428H182.007ZM190.169 128.34C191.255 128.34 192.237 128.589 193.117 129.088C193.997 129.572 194.687 130.261 195.185 131.156C195.684 132.051 195.933 133.07 195.933 134.214C195.933 135.358 195.684 136.377 195.185 137.272C194.687 138.167 193.997 138.863 193.117 139.362C192.237 139.861 191.255 140.11 190.169 140.11C189.201 140.11 188.329 139.905 187.551 139.494C186.789 139.083 186.173 138.489 185.703 137.712V140H184.207V123.676H185.769V130.628C186.253 129.88 186.869 129.315 187.617 128.934C188.38 128.538 189.231 128.34 190.169 128.34ZM190.059 138.724C190.866 138.724 191.599 138.541 192.259 138.174C192.919 137.793 193.433 137.257 193.799 136.568C194.181 135.879 194.371 135.094 194.371 134.214C194.371 133.334 194.181 132.549 193.799 131.86C193.433 131.171 192.919 130.643 192.259 130.276C191.599 129.895 190.866 129.704 190.059 129.704C189.238 129.704 188.497 129.895 187.837 130.276C187.192 130.643 186.679 131.171 186.297 131.86C185.931 132.549 185.747 133.334 185.747 134.214C185.747 135.094 185.931 135.879 186.297 136.568C186.679 137.257 187.192 137.793 187.837 138.174C188.497 138.541 189.238 138.724 190.059 138.724ZM199.117 128.428H200.679V140H199.117V128.428ZM199.909 125.898C199.587 125.898 199.315 125.788 199.095 125.568C198.875 125.348 198.765 125.084 198.765 124.776C198.765 124.483 198.875 124.226 199.095 124.006C199.315 123.786 199.587 123.676 199.909 123.676C200.232 123.676 200.503 123.786 200.723 124.006C200.943 124.211 201.053 124.461 201.053 124.754C201.053 125.077 200.943 125.348 200.723 125.568C200.503 125.788 200.232 125.898 199.909 125.898ZM215.102 134.698H205.422C205.51 135.901 205.972 136.876 206.808 137.624C207.644 138.357 208.7 138.724 209.976 138.724C210.694 138.724 211.354 138.599 211.956 138.35C212.557 138.086 213.078 137.705 213.518 137.206L214.398 138.218C213.884 138.834 213.239 139.303 212.462 139.626C211.699 139.949 210.856 140.11 209.932 140.11C208.744 140.11 207.688 139.861 206.764 139.362C205.854 138.849 205.143 138.145 204.63 137.25C204.116 136.355 203.86 135.343 203.86 134.214C203.86 133.085 204.102 132.073 204.586 131.178C205.084 130.283 205.759 129.587 206.61 129.088C207.475 128.589 208.443 128.34 209.514 128.34C210.584 128.34 211.545 128.589 212.396 129.088C213.246 129.587 213.914 130.283 214.398 131.178C214.882 132.058 215.124 133.07 215.124 134.214L215.102 134.698ZM209.514 129.682C208.399 129.682 207.46 130.041 206.698 130.76C205.95 131.464 205.524 132.388 205.422 133.532H213.628C213.525 132.388 213.092 131.464 212.33 130.76C211.582 130.041 210.643 129.682 209.514 129.682ZM219.799 130.694C220.166 129.917 220.708 129.33 221.427 128.934C222.16 128.538 223.062 128.34 224.133 128.34V129.858L223.759 129.836C222.542 129.836 221.588 130.21 220.899 130.958C220.21 131.706 219.865 132.755 219.865 134.104V140H218.303V128.428H219.799V130.694ZM235.295 138.702V140H225.879V138.966L233.161 129.748H226.011V128.428H235.163V129.462L227.881 138.702H235.295ZM247.229 140.11C246.291 140.11 245.389 139.978 244.523 139.714C243.673 139.435 243.005 139.091 242.521 138.68L243.225 137.448C243.709 137.829 244.318 138.145 245.051 138.394C245.785 138.629 246.547 138.746 247.339 138.746C248.395 138.746 249.173 138.585 249.671 138.262C250.185 137.925 250.441 137.455 250.441 136.854C250.441 136.429 250.302 136.099 250.023 135.864C249.745 135.615 249.393 135.431 248.967 135.314C248.542 135.182 247.977 135.057 247.273 134.94C246.335 134.764 245.579 134.588 245.007 134.412C244.435 134.221 243.944 133.906 243.533 133.466C243.137 133.026 242.939 132.417 242.939 131.64C242.939 130.672 243.343 129.88 244.149 129.264C244.956 128.648 246.078 128.34 247.515 128.34C248.263 128.34 249.011 128.443 249.759 128.648C250.507 128.839 251.123 129.095 251.607 129.418L250.925 130.672C249.972 130.012 248.835 129.682 247.515 129.682C246.518 129.682 245.763 129.858 245.249 130.21C244.751 130.562 244.501 131.024 244.501 131.596C244.501 132.036 244.641 132.388 244.919 132.652C245.213 132.916 245.572 133.114 245.997 133.246C246.423 133.363 247.009 133.488 247.757 133.62C248.681 133.796 249.422 133.972 249.979 134.148C250.537 134.324 251.013 134.625 251.409 135.05C251.805 135.475 252.003 136.062 252.003 136.81C252.003 137.822 251.578 138.629 250.727 139.23C249.891 139.817 248.725 140.11 247.229 140.11ZM259.621 140.11C258.506 140.11 257.502 139.861 256.607 139.362C255.712 138.849 255.008 138.145 254.495 137.25C253.982 136.355 253.725 135.343 253.725 134.214C253.725 133.085 253.982 132.073 254.495 131.178C255.008 130.283 255.712 129.587 256.607 129.088C257.502 128.589 258.506 128.34 259.621 128.34C260.736 128.34 261.74 128.589 262.635 129.088C263.53 129.587 264.226 130.283 264.725 131.178C265.238 132.073 265.495 133.085 265.495 134.214C265.495 135.343 265.238 136.355 264.725 137.25C264.226 138.145 263.53 138.849 262.635 139.362C261.74 139.861 260.736 140.11 259.621 140.11ZM259.621 138.724C260.442 138.724 261.176 138.541 261.821 138.174C262.481 137.793 262.994 137.257 263.361 136.568C263.728 135.879 263.911 135.094 263.911 134.214C263.911 133.334 263.728 132.549 263.361 131.86C262.994 131.171 262.481 130.643 261.821 130.276C261.176 129.895 260.442 129.704 259.621 129.704C258.8 129.704 258.059 129.895 257.399 130.276C256.754 130.643 256.24 131.171 255.859 131.86C255.492 132.549 255.309 133.334 255.309 134.214C255.309 135.094 255.492 135.879 255.859 136.568C256.24 137.257 256.754 137.793 257.399 138.174C258.059 138.541 258.8 138.724 259.621 138.724ZM274.646 128.34C275.731 128.34 276.714 128.589 277.594 129.088C278.474 129.572 279.163 130.261 279.662 131.156C280.161 132.051 280.41 133.07 280.41 134.214C280.41 135.358 280.161 136.377 279.662 137.272C279.163 138.167 278.474 138.863 277.594 139.362C276.714 139.861 275.731 140.11 274.646 140.11C273.678 140.11 272.805 139.905 272.028 139.494C271.265 139.083 270.649 138.489 270.18 137.712V140H268.684V123.676H270.246V130.628C270.73 129.88 271.346 129.315 272.094 128.934C272.857 128.538 273.707 128.34 274.646 128.34ZM274.536 138.724C275.343 138.724 276.076 138.541 276.736 138.174C277.396 137.793 277.909 137.257 278.276 136.568C278.657 135.879 278.848 135.094 278.848 134.214C278.848 133.334 278.657 132.549 278.276 131.86C277.909 131.171 277.396 130.643 276.736 130.276C276.076 129.895 275.343 129.704 274.536 129.704C273.715 129.704 272.974 129.895 272.314 130.276C271.669 130.643 271.155 131.171 270.774 131.86C270.407 132.549 270.224 133.334 270.224 134.214C270.224 135.094 270.407 135.879 270.774 136.568C271.155 137.257 271.669 137.793 272.314 138.174C272.974 138.541 273.715 138.724 274.536 138.724ZM283.594 128.428H285.156V140H283.594V128.428ZM284.386 125.898C284.063 125.898 283.792 125.788 283.572 125.568C283.352 125.348 283.242 125.084 283.242 124.776C283.242 124.483 283.352 124.226 283.572 124.006C283.792 123.786 284.063 123.676 284.386 123.676C284.709 123.676 284.98 123.786 285.2 124.006C285.42 124.211 285.53 124.461 285.53 124.754C285.53 125.077 285.42 125.348 285.2 125.568C284.98 125.788 284.709 125.898 284.386 125.898ZM299.578 134.698H289.898C289.986 135.901 290.448 136.876 291.284 137.624C292.12 138.357 293.176 138.724 294.452 138.724C295.171 138.724 295.831 138.599 296.432 138.35C297.034 138.086 297.554 137.705 297.994 137.206L298.874 138.218C298.361 138.834 297.716 139.303 296.938 139.626C296.176 139.949 295.332 140.11 294.408 140.11C293.22 140.11 292.164 139.861 291.24 139.362C290.331 138.849 289.62 138.145 289.106 137.25C288.593 136.355 288.336 135.343 288.336 134.214C288.336 133.085 288.578 132.073 289.062 131.178C289.561 130.283 290.236 129.587 291.086 129.088C291.952 128.589 292.92 128.34 293.99 128.34C295.061 128.34 296.022 128.589 296.872 129.088C297.723 129.587 298.39 130.283 298.874 131.178C299.358 132.058 299.6 133.07 299.6 134.214L299.578 134.698ZM293.99 129.682C292.876 129.682 291.937 130.041 291.174 130.76C290.426 131.464 290.001 132.388 289.898 133.532H298.104C298.002 132.388 297.569 131.464 296.806 130.76C296.058 130.041 295.12 129.682 293.99 129.682ZM314.631 139.296C314.338 139.56 313.971 139.765 313.531 139.912C313.106 140.044 312.659 140.11 312.189 140.11C311.104 140.11 310.268 139.817 309.681 139.23C309.095 138.643 308.801 137.815 308.801 136.744V129.748H306.733V128.428H308.801V125.898H310.363V128.428H313.883V129.748H310.363V136.656C310.363 137.345 310.532 137.873 310.869 138.24C311.221 138.592 311.72 138.768 312.365 138.768C312.688 138.768 312.996 138.717 313.289 138.614C313.597 138.511 313.861 138.365 314.081 138.174L314.631 139.296ZM317.585 123.676H319.147V140H317.585V123.676ZM315.363 133.686L320.687 129.682L321.391 130.65L316.089 134.632L315.363 133.686ZM328.349 140.11C327.235 140.11 326.23 139.861 325.335 139.362C324.441 138.849 323.737 138.145 323.223 137.25C322.71 136.355 322.453 135.343 322.453 134.214C322.453 133.085 322.71 132.073 323.223 131.178C323.737 130.283 324.441 129.587 325.335 129.088C326.23 128.589 327.235 128.34 328.349 128.34C329.464 128.34 330.469 128.589 331.363 129.088C332.258 129.587 332.955 130.283 333.453 131.178C333.967 132.073 334.223 133.085 334.223 134.214C334.223 135.343 333.967 136.355 333.453 137.25C332.955 138.145 332.258 138.849 331.363 139.362C330.469 139.861 329.464 140.11 328.349 140.11ZM328.349 138.724C329.171 138.724 329.904 138.541 330.549 138.174C331.209 137.793 331.723 137.257 332.089 136.568C332.456 135.879 332.639 135.094 332.639 134.214C332.639 133.334 332.456 132.549 332.089 131.86C331.723 131.171 331.209 130.643 330.549 130.276C329.904 129.895 329.171 129.704 328.349 129.704C327.528 129.704 326.787 129.895 326.127 130.276C325.482 130.643 324.969 131.171 324.587 131.86C324.221 132.549 324.037 133.334 324.037 134.214C324.037 135.094 324.221 135.879 324.587 136.568C324.969 137.257 325.482 137.793 326.127 138.174C326.787 138.541 327.528 138.724 328.349 138.724ZM337.244 140.11C336.921 140.11 336.643 139.993 336.408 139.758C336.188 139.523 336.078 139.237 336.078 138.9C336.078 138.563 336.188 138.284 336.408 138.064C336.643 137.829 336.921 137.712 337.244 137.712C337.567 137.712 337.845 137.829 338.08 138.064C338.315 138.284 338.432 138.563 338.432 138.9C338.432 139.237 338.315 139.523 338.08 139.758C337.845 139.993 337.567 140.11 337.244 140.11ZM341.906 140.11C341.584 140.11 341.305 139.993 341.07 139.758C340.85 139.523 340.74 139.237 340.74 138.9C340.74 138.563 340.85 138.284 341.07 138.064C341.305 137.829 341.584 137.712 341.906 137.712C342.229 137.712 342.508 137.829 342.742 138.064C342.977 138.284 343.094 138.563 343.094 138.9C343.094 139.237 342.977 139.523 342.742 139.758C342.508 139.993 342.229 140.11 341.906 140.11ZM346.568 140.11C346.246 140.11 345.967 139.993 345.732 139.758C345.512 139.523 345.402 139.237 345.402 138.9C345.402 138.563 345.512 138.284 345.732 138.064C345.967 137.829 346.246 137.712 346.568 137.712C346.891 137.712 347.17 137.829 347.404 138.064C347.639 138.284 347.756 138.563 347.756 138.9C347.756 139.237 347.639 139.523 347.404 139.758C347.17 139.993 346.891 140.11 346.568 140.11ZM351.23 140.11C350.908 140.11 350.629 139.993 350.394 139.758C350.174 139.523 350.064 139.237 350.064 138.9C350.064 138.563 350.174 138.284 350.394 138.064C350.629 137.829 350.908 137.712 351.23 137.712C351.553 137.712 351.832 137.829 352.066 138.064C352.301 138.284 352.418 138.563 352.418 138.9C352.418 139.237 352.301 139.523 352.066 139.758C351.832 139.993 351.553 140.11 351.23 140.11Z" fill="white"/>
</svg>
