<?xml version='1.0' encoding='utf-8'?>
<svg xmlns="http://www.w3.org/2000/svg" id="svg2979" version="1.1" viewBox="0 0 52.916666 41.922607" height="158.44763" width="200"> <defs id="defs2973"/> <metadata id="metadata2976"> </metadata> <g transform="translate(131.3215,-357.77161)" id="layer1"> <g transform="matrix(0.24684066,0,0,0.24684066,-312.85935,-471.73138)" id="g2930"> <path id="path2926" d="m 928.98633,3381.959 a 7.9382937,7.9382937 0 0 0 -6.64258,3.2637 l -71.66992,95.5585 -20.71485,-41.4296 a 7.9382937,7.9382937 0 0 0 -12.71093,-2.0625 l -79.375,79.375 a 7.9382937,7.9382937 0 1 0 11.22461,11.2246 l 71.58789,-71.5879 21.5332,43.0664 a 7.9382937,7.9382937 0 0 0 13.44922,1.2129 l 79.375,-105.834 a 7.9382937,7.9382937 0 0 0 -6.05664,-12.7871 z" style="color:#000000;font-style:normal;font-variant:normal;font-weight:normal;font-stretch:normal;font-size:medium;line-height:normal;font-family:sans-serif;font-variant-ligatures:normal;font-variant-position:normal;font-variant-caps:normal;font-variant-numeric:normal;font-variant-alternates:normal;font-feature-settings:normal;text-indent:0;text-align:start;text-decoration:none;text-decoration-line:none;text-decoration-style:solid;text-decoration-color:#000000;letter-spacing:normal;word-spacing:normal;text-transform:none;writing-mode:lr-tb;direction:ltr;text-orientation:mixed;dominant-baseline:auto;baseline-shift:baseline;text-anchor:start;white-space:normal;shape-padding:0;clip-rule:nonzero;display:inline;overflow:visible;visibility:visible;opacity:1;isolation:auto;mix-blend-mode:normal;color-interpolation:sRGB;color-interpolation-filters:linearRGB;solid-color:#000000;solid-opacity:1;vector-effect:none;fill:#5599ff;fill-opacity:1;fill-rule:evenodd;stroke:none;stroke-width:15.875;stroke-linecap:round;stroke-linejoin:round;stroke-miterlimit:4;stroke-dasharray:none;stroke-dashoffset:0;stroke-opacity:1;color-rendering:auto;image-rendering:auto;shape-rendering:auto;text-rendering:auto;enable-background:accumulate"/> <path id="path2928" transform="scale(0.26458333)" d="m 3569.5098,12701.047 a 21.311109,21.311109 0 0 0 -2.127,0.01 21.311109,21.311109 0 0 0 -8.0801,2.086 l -62.0547,29.957 -62.0546,29.962 a 21.311109,21.311109 0 0 0 -2.7188,36.809 l 56.9688,38.762 56.9746,38.76 a 21.311109,21.311109 0 0 0 33.2382,-16.045 l 5.084,-68.725 5.0782,-68.723 a 21.311109,21.311109 0 0 0 -20.3086,-22.855 z" style="color:#000000;font-style:normal;font-variant:normal;font-weight:normal;font-stretch:normal;font-size:medium;line-height:normal;font-family:sans-serif;font-variant-ligatures:normal;font-variant-position:normal;font-variant-caps:normal;font-variant-numeric:normal;font-variant-alternates:normal;font-feature-settings:normal;text-indent:0;text-align:start;text-decoration:none;text-decoration-line:none;text-decoration-style:solid;text-decoration-color:#000000;letter-spacing:normal;word-spacing:normal;text-transform:none;writing-mode:lr-tb;direction:ltr;text-orientation:mixed;dominant-baseline:auto;baseline-shift:baseline;text-anchor:start;white-space:normal;shape-padding:0;clip-rule:nonzero;display:inline;overflow:visible;visibility:visible;opacity:1;isolation:auto;mix-blend-mode:normal;color-interpolation:sRGB;color-interpolation-filters:linearRGB;solid-color:#000000;solid-opacity:1;vector-effect:none;fill:#5599ff;fill-opacity:1;fill-rule:nonzero;stroke:none;stroke-width:42.61795807;stroke-linecap:round;stroke-linejoin:round;stroke-miterlimit:4;stroke-dasharray:none;stroke-dashoffset:0;stroke-opacity:1;color-rendering:auto;image-rendering:auto;shape-rendering:auto;text-rendering:auto;enable-background:accumulate"/> </g> </g> </svg>