<?xml version="1.0" encoding="UTF-8"?>
<svg version="1.1" viewBox="0 0 501.41 265.61" xmlns="http://www.w3.org/2000/svg">
 <defs>
  <linearGradient id="c" x1="58.589" x2="787.92" y1="339.19" y2="-79.009" gradientTransform="matrix(.46862 0 0 .46862 -46.179 -57.539)" gradientUnits="userSpaceOnUse">
   <stop stop-color="#005e00" offset="0"/>
   <stop stop-color="#00c300" offset="1"/>
  </linearGradient>
  <linearGradient id="d" x1="197.99" x2="197.99" y1="450.31" y2="395.68" gradientTransform="matrix(.46862 0 0 .46862 -46.179 -53.188)" gradientUnits="userSpaceOnUse">
   <stop stop-color="#006700" offset="0"/>
   <stop stop-color="#00c100" offset="1"/>
  </linearGradient>
 </defs>
 <g transform="translate(86.903 108.28)">
  <path d="m414.51 131.56h-449.47l-51.941 25.774h464.87z" color="#000000" fill="url(#d)"/>
  <path d="m-22.001 139.29 17.316-8.5924 0.014012 7.3965-17.33 11.605z" color="#000000" fill="#008500"/>
  <path d="m-4.6718 130.69h-24.435l-17.33 8.5994h24.435z" color="#000000" fill="#005e00"/>
  <path d="m9.4892 130.14h24.435v19.557h-24.435z" color="#000000" fill="#00bc00"/>
  <path d="m33.924 130.14 17.316-8.5924 0.01401 16.544-17.33 11.605z" color="#000000" fill="#008500"/>
  <path d="m51.254 121.55h-24.435l-17.33 8.5994h24.435z" color="#000000" fill="#005e00"/>
  <path d="m65.415 116.65h24.435v33.048h-24.435z" color="#000000" fill="#00bc00"/>
  <path d="m89.85 116.65 17.316-8.5924 0.014 30.035-17.33 11.605z" color="#000000" fill="#008500"/>
  <path d="m107.18 108.05h-24.435l-17.33 8.5994h24.435z" color="#000000" fill="#005e00"/>
  <path d="m121.34 98.902h24.435v50.799h-24.435z" color="#000000" fill="#00bc00"/>
  <path d="m145.78 98.902 17.316-8.5925 0.014 47.787-17.33 11.605z" color="#000000" fill="#008500"/>
  <path d="m163.1 90.303h-24.435l-17.33 8.5994h24.435z" color="#000000" fill="#005e00"/>
  <path d="m177.27 75.233h24.435v74.468h-24.435z" color="#000000" fill="#00bc00"/>
  <path d="m201.7 75.233 17.316-8.5925 0.014 71.455-17.33 11.605z" color="#000000" fill="#008500"/>
  <path d="m219.03 66.634h-24.435l-17.33 8.5994h24.435z" color="#000000" fill="#005e00"/>
  <path d="m233.19 42.334h24.435v107.37h-24.435z" color="#000000" fill="#00bc00"/>
  <path d="m257.63 42.334 17.316-8.5925 0.014 104.35-17.33 11.605z" color="#000000" fill="#008500"/>
  <path d="m274.96 33.735h-24.435l-17.33 8.5994h24.435z" color="#000000" fill="#005e00"/>
  <path d="m289.12-1.453h24.435v151.15h-24.435z" color="#000000" fill="#00bc00"/>
  <path d="m313.55-1.453 17.316-8.5925 0.014 148.14-17.33 11.605z" color="#000000" fill="#008500"/>
  <path d="m330.88-10.052h-24.435l-17.33 8.5994h24.435z" color="#000000" fill="#005e00"/>
  <path d="m345.04-60.625h24.435v210.33h-24.435z" color="#000000" fill="#00bc00"/>
  <path d="m369.48-60.625 17.316-8.5925 0.014 207.31-17.33 11.605z" color="#000000" fill="#008500"/>
  <path d="m386.81-69.224h-24.435l-17.33 8.5994h24.435z" color="#000000" fill="#005e00"/>
  <path d="m330.27-108.28-47.389 22.186 16.87 5.8138c-88.342 102.12-204.29 152.91-336.9 175l2.3138 13.868c134.86-22.462 254.58-74.806 345.41-179.89l9.0062 14.249 10.69-51.225z" color="#000000" fill="url(#c)" style="block-progression:tb;text-indent:0;text-transform:none"/>
 </g>
</svg>
